<svg xmlns="http://www.w3.org/2000/svg" xmlns:xlink="http://www.w3.org/1999/xlink" xmlns:ev="http://www.w3.org/2001/xml-events" width="1265" height="1539" viewBox="0 0 1265 1539"><defs/><g transform="translate(5,5)" id="page1"><rect x="0" y="0" width="1255" height="1529" fill="#ffffff"/><g transform="translate(305.80,1264.10)" id="shape1"><path fill="#e9edf8" d="M0,0L684,0L684,262.6L0,262.6L0,0ZM0,67.6L684.6,67.6L0,67.6Z"/><path stroke="#000000" stroke-width="3.33333" d="M0,0L684,0L684,262.6L0,262.6L0,0ZM0,67.6L684.6,67.6L0,67.6Z" fill="none"/><text xmlns="http://www.w3.org/2000/svg" xml:space="preserve"><tspan x="263.9921875" y="25.5" textLength="156.640625" style="fill:rgb(0, 0, 0);font-family:Bahnschrift;font-size:16pt;font-weight:normal;">&lt;&lt;subsystem&gt;&gt;</tspan><tspan x="304.25" y="51.1015625" textLength="76.1171875" style="fill:rgb(0, 0, 0);font-family:Bahnschrift;font-size:16pt;font-weight:bold;">Metrics</tspan></text></g><g transform="translate(21.00,1.37)" id="shape2"><path fill="#ebebeb" d="M0,0L1188,0L1188,207.6L0,207.6L0,0ZM0,67.6L1187.8,67.6L0,67.6Z"/><path stroke="#000000" stroke-width="3.33333" stroke-dasharray="36.66663,16.66665" d="M0,0L1188,0L1188,207.6L0,207.6L0,0ZM0,67.6L1187.8,67.6L0,67.6Z" fill="none"/><text xmlns="http://www.w3.org/2000/svg" xml:space="preserve"><tspan x="515.5946875000003" y="25.5" textLength="156.640625" style="fill:rgb(0, 0, 0);font-family:Bahnschrift;font-size:16pt;font-weight:normal;">&lt;&lt;subsystem&gt;&gt;</tspan><tspan x="505.7587500000003" y="51.1015625" textLength="176.3125" style="fill:rgb(0, 0, 0);font-family:Bahnschrift;font-size:16pt;font-weight:bold;">External Systems</tspan></text></g><g transform="translate(97.41,711.09)" id="shape3"><path fill="#edf6ea" d="M0,0L268,0L268,371.6L0,371.6L0,0ZM0,72.6L267.5,72.6L0,72.6Z"/><path stroke="#000000" stroke-width="3.33333" d="M0,0L268,0L268,371.6L0,371.6L0,0ZM0,72.6L267.5,72.6L0,72.6Z" fill="none"/><text xmlns="http://www.w3.org/2000/svg" xml:space="preserve"><tspan x="55.44468750000007" y="28" textLength="156.640625" style="fill:rgb(0, 0, 0);font-family:Bahnschrift;font-size:16pt;font-weight:normal;">&lt;&lt;subsystem&gt;&gt;</tspan><tspan x="52.27281250000007" y="53.6015625" textLength="162.984375" style="fill:rgb(0, 0, 0);font-family:Bahnschrift;font-size:16pt;font-weight:bold;">Test Generation</tspan></text></g><g transform="translate(390.11,360.84)" id="shape4"><path fill="#e7f2fc" d="M0,0L333,0L333,754.6L0,754.6L0,0ZM0,67.6L332.6,67.6L0,67.6Z"/><path stroke="#000000" stroke-width="3.33333" d="M0,0L333,0L333,754.6L0,754.6L0,0ZM0,67.6L332.6,67.6L0,67.6Z" fill="none"/><text xmlns="http://www.w3.org/2000/svg" xml:space="preserve"><tspan x="87.99593749999997" y="25.5" textLength="156.640625" style="fill:rgb(0, 0, 0);font-family:Bahnschrift;font-size:16pt;font-weight:normal;">&lt;&lt;subsystem&gt;&gt;</tspan><tspan x="25.824062499999968" y="51.1015625" textLength="280.984375" style="fill:rgb(0, 0, 0);font-family:Bahnschrift;font-size:16pt;font-weight:bold;">Core Evaluation Framework</tspan></text></g><g transform="translate(900.19,362.10)" id="shape5"><path fill="#fff4e8" d="M0,0L353,0L353,804.6L0,804.6L0,0ZM0,67.6L352.8,67.6L0,67.6Z"/><path stroke="#000000" stroke-width="3.33333" d="M0,0L353,0L353,804.6L0,804.6L0,0ZM0,67.6L352.8,67.6L0,67.6Z" fill="none"/><text xmlns="http://www.w3.org/2000/svg" xml:space="preserve"><tspan x="98.08468749999975" y="25.5" textLength="156.640625" style="fill:rgb(0, 0, 0);font-family:Bahnschrift;font-size:16pt;font-weight:normal;">&lt;&lt;subsystem&gt;&gt;</tspan><tspan x="107.39718749999975" y="51.1015625" textLength="138.0078125" style="fill:rgb(0, 0, 0);font-family:Bahnschrift;font-size:16pt;font-weight:bold;">Dashboard UI</tspan></text></g><g transform="translate(451.33,798.66)" id="group6"><g transform="matrix(1.00,0.00,0.00,1.00,0.0,0.0)" id="shape7"><path fill="#aad3f5" d="M0,0L201,0L201,90L0,90L0,0Z" stroke="#000000" stroke-width="3.33333"/></g><g transform="translate(173.00,10.00)" id="group8"><g transform="translate(4.80,0.00)" id="shape9"><path fill="#aad3f5" d="M0,0L15.2,0L15.2,20L0,20L0,0Z" stroke="#000000" stroke-width="3.33333"/></g><g transform="translate(0.00,3.00)" id="shape10"><path fill="#aad3f5" d="M0,0L10,0L10,4L0,4L0,0Z" stroke="#000000" stroke-width="3.33333"/></g><g transform="translate(0.00,13.00)" id="shape11"><path fill="#aad3f5" d="M0,0L10,0L10,4L0,4L0,0Z" stroke="#000000" stroke-width="3.33333"/></g></g><text xmlns="http://www.w3.org/2000/svg" xml:space="preserve"><tspan x="19.0625" y="48.75" textLength="162.8671875" style="fill:rgb(0, 0, 0);font-family:Bahnschrift;font-size:14pt;font-weight:bold;">EvaluationPipeline</tspan></text></g><g transform="translate(451.33,636.00)" id="group12"><g transform="matrix(1.00,0.00,0.00,1.00,0.0,0.0)" id="shape13"><path fill="#aad3f5" d="M0,0L201,0L201,90L0,90L0,0Z" stroke="#000000" stroke-width="3.33333"/></g><g transform="translate(173.00,10.00)" id="group14"><g transform="translate(4.80,0.00)" id="shape15"><path fill="#aad3f5" d="M0,0L15.2,0L15.2,20L0,20L0,0Z" stroke="#000000" stroke-width="3.33333"/></g><g transform="translate(0.00,3.00)" id="shape16"><path fill="#aad3f5" d="M0,0L10,0L10,4L0,4L0,0Z" stroke="#000000" stroke-width="3.33333"/></g><g transform="translate(0.00,13.00)" id="shape17"><path fill="#aad3f5" d="M0,0L10,0L10,4L0,4L0,0Z" stroke="#000000" stroke-width="3.33333"/></g></g><text xmlns="http://www.w3.org/2000/svg" xml:space="preserve"><tspan x="28.453125" y="48.75" textLength="144.0859375" style="fill:rgb(0, 0, 0);font-family:Bahnschrift;font-size:14pt;font-weight:bold;">GQMFramework</tspan></text></g><g transform="translate(458.33,976.00)" id="group18"><g transform="matrix(1.00,0.00,0.00,1.00,0.0,0.0)" id="shape19"><path fill="#aad3f5" d="M0,0L201,0L201,90L0,90L0,0Z" stroke="#000000" stroke-width="3.33333"/></g><g transform="translate(173.00,10.00)" id="group20"><g transform="translate(4.80,0.00)" id="shape21"><path fill="#aad3f5" d="M0,0L15.2,0L15.2,20L0,20L0,0Z" stroke="#000000" stroke-width="3.33333"/></g><g transform="translate(0.00,3.00)" id="shape22"><path fill="#aad3f5" d="M0,0L10,0L10,4L0,4L0,0Z" stroke="#000000" stroke-width="3.33333"/></g><g transform="translate(0.00,13.00)" id="shape23"><path fill="#aad3f5" d="M0,0L10,0L10,4L0,4L0,0Z" stroke="#000000" stroke-width="3.33333"/></g></g><text xmlns="http://www.w3.org/2000/svg" xml:space="preserve"><tspan x="32.65625" y="48.75" textLength="135.6875" style="fill:rgb(0, 0, 0);font-family:Bahnschrift;font-size:14pt;font-weight:bold;">MetricExecutor</tspan></text></g><g transform="translate(442.33,443.34)" id="group24"><g transform="matrix(1.00,0.00,0.00,1.00,0.0,0.0)" id="shape25"><path fill="#aad3f5" d="M0,0L217,0L217,90L0,90L0,0Z" stroke="#000000" stroke-width="3.33333"/></g><g transform="translate(189.00,10.00)" id="group26"><g transform="translate(4.80,0.00)" id="shape27"><path fill="#aad3f5" d="M0,0L15.2,0L15.2,20L0,20L0,0Z" stroke="#000000" stroke-width="3.33333"/></g><g transform="translate(0.00,3.00)" id="shape28"><path fill="#aad3f5" d="M0,0L10,0L10,4L0,4L0,0Z" stroke="#000000" stroke-width="3.33333"/></g><g transform="translate(0.00,13.00)" id="shape29"><path fill="#aad3f5" d="M0,0L10,0L10,4L0,4L0,0Z" stroke="#000000" stroke-width="3.33333"/></g></g><text xmlns="http://www.w3.org/2000/svg" xml:space="preserve"><tspan x="6.0390625" y="48.75" textLength="204.921875" style="fill:rgb(0, 0, 0);font-family:Bahnschrift;font-size:14pt;font-weight:bold;">LangChainRAGAdapter</tspan></text></g><g transform="translate(127.95,798.54)" id="group30"><g transform="matrix(1.00,0.00,0.00,1.00,0.0,0.0)" id="shape31"><path fill="#b0ddc1" d="M0,0L201,0L201,90L0,90L0,0Z" stroke="#000000" stroke-width="3.33333"/></g><g transform="translate(173.00,10.00)" id="group32"><g transform="translate(4.80,0.00)" id="shape33"><path fill="#b0ddc1" d="M0,0L15.2,0L15.2,20L0,20L0,0Z" stroke="#000000" stroke-width="3.33333"/></g><g transform="translate(0.00,3.00)" id="shape34"><path fill="#b0ddc1" d="M0,0L10,0L10,4L0,4L0,0Z" stroke="#000000" stroke-width="3.33333"/></g><g transform="translate(0.00,13.00)" id="shape35"><path fill="#b0ddc1" d="M0,0L10,0L10,4L0,4L0,0Z" stroke="#000000" stroke-width="3.33333"/></g></g><text xmlns="http://www.w3.org/2000/svg" xml:space="preserve"><tspan x="16.28125" y="48.75" textLength="168.4296875" style="fill:rgb(0, 0, 0);font-family:Bahnschrift;font-size:14pt;font-weight:bold;">QuestionGenerator</tspan></text></g><g transform="translate(127.95,958.51)" id="group36"><g transform="matrix(1.00,0.00,0.00,1.00,0.0,0.0)" id="shape37"><path fill="#b0ddc1" d="M0,0L201,0L201,90L0,90L0,0Z" stroke="#000000" stroke-width="3.33333"/></g><g transform="translate(173.00,10.00)" id="group38"><g transform="translate(4.80,0.00)" id="shape39"><path fill="#b0ddc1" d="M0,0L15.2,0L15.2,20L0,20L0,0Z" stroke="#000000" stroke-width="3.33333"/></g><g transform="translate(0.00,3.00)" id="shape40"><path fill="#b0ddc1" d="M0,0L10,0L10,4L0,4L0,0Z" stroke="#000000" stroke-width="3.33333"/></g><g transform="translate(0.00,13.00)" id="shape41"><path fill="#b0ddc1" d="M0,0L10,0L10,4L0,4L0,0Z" stroke="#000000" stroke-width="3.33333"/></g></g><text xmlns="http://www.w3.org/2000/svg" xml:space="preserve"><tspan x="32.5703125" y="48.75" textLength="135.859375" style="fill:rgb(0, 0, 0);font-family:Bahnschrift;font-size:14pt;font-weight:bold;">QuestionCache</tspan></text></g><g transform="translate(333.77,1352.70)" id="group42"><g transform="matrix(1.00,0.00,0.00,1.00,0.0,0.0)" id="group43"><g transform="matrix(1.00,0.00,0.00,1.00,0.0,0.0)" id="shape44"><path fill="#b2c2e9" d="M0,0L185,0L185,149L0,149L0,0Z" stroke="#000000" stroke-width="3.33333"/></g><g transform="translate(157.00,10.00)" id="group45"><g transform="translate(4.80,0.00)" id="shape46"><path fill="#b2c2e9" d="M0,0L15.2,0L15.2,20L0,20L0,0Z" stroke="#000000" stroke-width="3.33333"/></g><g transform="translate(0.00,3.00)" id="shape47"><path fill="#b2c2e9" d="M0,0L10,0L10,4L0,4L0,0Z" stroke="#000000" stroke-width="3.33333"/></g><g transform="translate(0.00,13.00)" id="shape48"><path fill="#b2c2e9" d="M0,0L10,0L10,4L0,4L0,0Z" stroke="#000000" stroke-width="3.33333"/></g></g><text xmlns="http://www.w3.org/2000/svg" xml:space="preserve"><tspan x="37.3359375" y="17" textLength="110.328125" style="fill:rgb(0, 0, 0);font-family:Bahnschrift;font-size:14pt;font-weight:bold;">&lt;&lt;module&gt;&gt;</tspan><tspan x="18.75" y="39.890625" textLength="147.4921875" style="fill:rgb(0, 0, 0);font-family:Bahnschrift;font-size:14pt;font-weight:bold;">retrieval_metrics</tspan></text></g><g transform="translate(0.00,56.69)" id="shape49"><path fill="#b2c2e9" fill-opacity="0.00" d="M185,90L185,0L0,0L0,90L185,90Z" stroke="#323232"/><text xmlns="http://www.w3.org/2000/svg" xml:space="preserve"><tspan x="3.5" y="30.207049999997253" textLength="0" style="fill:rgb(0, 0, 0);font-family:&quot;Helvetica Neue&quot;, Helvetica, &quot;PingFang SC&quot;, &quot;Microsoft YaHei&quot;, &quot;\5 FAE8F6F96C59ED1&quot;, Arial, sans-serif;font-size:12pt;font-weight:normal;">•</tspan><tspan x="3.5" y="49.40236249999725" textLength="0" style="fill:rgb(0, 0, 0);font-family:&quot;Helvetica Neue&quot;, Helvetica, &quot;PingFang SC&quot;, &quot;Microsoft YaHei&quot;, &quot;\5 FAE8F6F96C59ED1&quot;, Arial, sans-serif;font-size:12pt;font-weight:normal;">•</tspan><tspan x="25.5" y="30.707049999997253" textLength="135.171875" style="fill:rgb(25, 25, 25);font-family:Arial;font-size:12pt;font-weight:normal;">context_precision()</tspan><tspan x="3.5" y="68.59767499999725" textLength="0" style="fill:rgb(0, 0, 0);font-family:&quot;Helvetica Neue&quot;, Helvetica, &quot;PingFang SC&quot;, &quot;Microsoft YaHei&quot;, &quot;\5 FAE8F6F96C59ED1&quot;, Arial, sans-serif;font-size:12pt;font-weight:normal;">•</tspan><tspan x="25.5" y="49.90236249999725" textLength="109.375" style="fill:rgb(25, 25, 25);font-family:Arial;font-size:12pt;font-weight:normal;">context_recall()</tspan><tspan x="25.5" y="69.09767499999725" textLength="140.515625" style="fill:rgb(25, 25, 25);font-family:Arial;font-size:12pt;font-weight:normal;">context_relevance()</tspan></text></g></g><g transform="translate(547.98,1352.70)" id="group50"><g transform="matrix(1.00,0.00,0.00,1.00,0.0,0.0)" id="group51"><g transform="matrix(1.00,0.00,0.00,1.00,0.0,0.0)" id="shape52"><path fill="#b2c2e9" d="M0,0L185,0L185,149L0,149L0,0Z" stroke="#000000" stroke-width="3.33333"/></g><g transform="translate(157.00,10.00)" id="group53"><g transform="translate(4.80,0.00)" id="shape54"><path fill="#b2c2e9" d="M0,0L15.2,0L15.2,20L0,20L0,0Z" stroke="#000000" stroke-width="3.33333"/></g><g transform="translate(0.00,3.00)" id="shape55"><path fill="#b2c2e9" d="M0,0L10,0L10,4L0,4L0,0Z" stroke="#000000" stroke-width="3.33333"/></g><g transform="translate(0.00,13.00)" id="shape56"><path fill="#b2c2e9" d="M0,0L10,0L10,4L0,4L0,0Z" stroke="#000000" stroke-width="3.33333"/></g></g><text xmlns="http://www.w3.org/2000/svg" xml:space="preserve"><tspan x="37.3359375" y="17" textLength="110.328125" style="fill:rgb(0, 0, 0);font-family:Bahnschrift;font-size:14pt;font-weight:bold;">&lt;&lt;module&gt;&gt;</tspan><tspan x="7.265625" y="39.890625" textLength="170.46875" style="fill:rgb(0, 0, 0);font-family:Bahnschrift;font-size:14pt;font-weight:bold;">generation_metrics</tspan></text></g><g transform="translate(0.00,51.70)" id="shape57"><path fill="#b2c2e9" fill-opacity="0.00" d="M185,95L185,0L0,0L0,95L185,95Z" stroke="#323232"/><text xmlns="http://www.w3.org/2000/svg" xml:space="preserve"><tspan x="3.5" y="32.70704999999725" textLength="0" style="fill:rgb(0, 0, 0);font-family:&quot;Helvetica Neue&quot;, Helvetica, &quot;PingFang SC&quot;, &quot;Microsoft YaHei&quot;, &quot;\5 FAE8F6F96C59ED1&quot;, Arial, sans-serif;font-size:12pt;font-weight:normal;">•</tspan><tspan x="3.5" y="51.90236249999725" textLength="0" style="fill:rgb(0, 0, 0);font-family:&quot;Helvetica Neue&quot;, Helvetica, &quot;PingFang SC&quot;, &quot;Microsoft YaHei&quot;, &quot;\5 FAE8F6F96C59ED1&quot;, Arial, sans-serif;font-size:12pt;font-weight:normal;">•</tspan><tspan x="25.5" y="33.20704999999725" textLength="91.59375" style="fill:rgb(25, 25, 25);font-family:Arial;font-size:12pt;font-weight:normal;">faithfulness()</tspan><tspan x="3.5" y="71.09767499999725" textLength="0" style="fill:rgb(0, 0, 0);font-family:&quot;Helvetica Neue&quot;, Helvetica, &quot;PingFang SC&quot;, &quot;Microsoft YaHei&quot;, &quot;\5 FAE8F6F96C59ED1&quot;, Arial, sans-serif;font-size:12pt;font-weight:normal;">•</tspan><tspan x="25.5" y="52.40236249999725" textLength="140.5078125" style="fill:rgb(25, 25, 25);font-family:Arial;font-size:12pt;font-weight:normal;">answer_relevance()</tspan><tspan x="25.5" y="71.59767499999725" textLength="77.3515625" style="fill:rgb(25, 25, 25);font-family:Arial;font-size:12pt;font-weight:normal;">bertscore()</tspan></text></g></g><g transform="translate(762.18,1352.70)" id="group58"><g transform="matrix(1.00,0.00,0.00,1.00,0.0,0.0)" id="group59"><g transform="matrix(1.00,0.00,0.00,1.00,0.0,0.0)" id="shape60"><path fill="#b2c2e9" d="M0,0L205,0L205,149L0,149L0,0Z" stroke="#000000" stroke-width="3.33333"/></g><g transform="translate(177.00,10.00)" id="group61"><g transform="translate(4.80,0.00)" id="shape62"><path fill="#b2c2e9" d="M0,0L15.2,0L15.2,20L0,20L0,0Z" stroke="#000000" stroke-width="3.33333"/></g><g transform="translate(0.00,3.00)" id="shape63"><path fill="#b2c2e9" d="M0,0L10,0L10,4L0,4L0,0Z" stroke="#000000" stroke-width="3.33333"/></g><g transform="translate(0.00,13.00)" id="shape64"><path fill="#b2c2e9" d="M0,0L10,0L10,4L0,4L0,0Z" stroke="#000000" stroke-width="3.33333"/></g></g><text xmlns="http://www.w3.org/2000/svg" xml:space="preserve"><tspan x="47.3359375" y="17" textLength="110.328125" style="fill:rgb(0, 0, 0);font-family:Bahnschrift;font-size:14pt;font-weight:bold;">&lt;&lt;module&gt;&gt;</tspan><tspan x="33.0703125" y="39.890625" textLength="138.859375" style="fill:rgb(0, 0, 0);font-family:Bahnschrift;font-size:14pt;font-weight:bold;">system_metrics</tspan></text></g><g transform="translate(0.00,51.70)" id="shape65"><path fill="#b2c2e9" fill-opacity="0.00" d="M205,95L205,0L0,0L0,95L205,95Z" stroke="#323232"/><text xmlns="http://www.w3.org/2000/svg" xml:space="preserve"><tspan x="3.5" y="42.304700000000594" textLength="0" style="fill:rgb(0, 0, 0);font-family:&quot;Helvetica Neue&quot;, Helvetica, &quot;PingFang SC&quot;, &quot;Microsoft YaHei&quot;, &quot;\5 FAE8F6F96C59ED1&quot;, Arial, sans-serif;font-size:12pt;font-weight:normal;">•</tspan><tspan x="3.5" y="61.500012500000594" textLength="0" style="fill:rgb(0, 0, 0);font-family:&quot;Helvetica Neue&quot;, Helvetica, &quot;PingFang SC&quot;, &quot;Microsoft YaHei&quot;, &quot;\5 FAE8F6F96C59ED1&quot;, Arial, sans-serif;font-size:12pt;font-weight:normal;">•</tspan><tspan x="25.5" y="42.804700000000594" textLength="153.828125" style="fill:rgb(25, 25, 25);font-family:Arial;font-size:12pt;font-weight:normal;">answer_correctness()</tspan><tspan x="25.5" y="62.000012500000594" textLength="159.203125" style="fill:rgb(25, 25, 25);font-family:Arial;font-size:12pt;font-weight:normal;">multi_hop_reasoning()</tspan></text></g></g><g transform="translate(59.00,86.00)" id="group66"><g transform="matrix(1.00,0.00,0.00,1.00,0.0,0.0)" id="shape67"><path fill="#c2c2c2" d="M0,0L201,0L201,90L0,90L0,0Z" stroke="#000000" stroke-width="3.33333" stroke-dasharray="36.66663,16.66665"/></g><g transform="translate(173.00,10.00)" id="group68"><g transform="translate(4.80,0.00)" id="shape69"><path fill="#c2c2c2" d="M0,0L15.2,0L15.2,20L0,20L0,0Z" stroke="#000000" stroke-width="3.33333" stroke-dasharray="36.66663,16.66665"/></g><g transform="translate(0.00,3.00)" id="shape70"><path fill="#c2c2c2" d="M0,0L10,0L10,4L0,4L0,0Z" stroke="#000000" stroke-width="3.33333" stroke-dasharray="36.66663,16.66665"/></g><g transform="translate(0.00,13.00)" id="shape71"><path fill="#c2c2c2" d="M0,0L10,0L10,4L0,4L0,0Z" stroke="#000000" stroke-width="3.33333" stroke-dasharray="36.66663,16.66665"/></g></g><text xmlns="http://www.w3.org/2000/svg" xml:space="preserve"><tspan x="41.5703125" y="48.75" textLength="117.8515625" style="fill:rgb(0, 0, 0);font-family:Bahnschrift;font-size:14pt;font-weight:bold;">Pinecone API</tspan></text></g><g transform="translate(285.00,86.00)" id="group72"><g transform="matrix(1.00,0.00,0.00,1.00,0.0,0.0)" id="shape73"><path fill="#c2c2c2" d="M0,0L201,0L201,90L0,90L0,0Z" stroke="#000000" stroke-width="3.33333" stroke-dasharray="36.66663,16.66665"/></g><g transform="translate(173.00,10.00)" id="group74"><g transform="translate(4.80,0.00)" id="shape75"><path fill="#c2c2c2" d="M0,0L15.2,0L15.2,20L0,20L0,0Z" stroke="#000000" stroke-width="3.33333" stroke-dasharray="36.66663,16.66665"/></g><g transform="translate(0.00,3.00)" id="shape76"><path fill="#c2c2c2" d="M0,0L10,0L10,4L0,4L0,0Z" stroke="#000000" stroke-width="3.33333" stroke-dasharray="36.66663,16.66665"/></g><g transform="translate(0.00,13.00)" id="shape77"><path fill="#c2c2c2" d="M0,0L10,0L10,4L0,4L0,0Z" stroke="#000000" stroke-width="3.33333" stroke-dasharray="36.66663,16.66665"/></g></g><text xmlns="http://www.w3.org/2000/svg" xml:space="preserve"><tspan x="16.7109375" y="48.75" textLength="167.578125" style="fill:rgb(0, 0, 0);font-family:Bahnschrift;font-size:14pt;font-weight:bold;">Google Gemini API</tspan></text></g><g transform="translate(511.00,86.00)" id="group78"><g transform="matrix(1.00,0.00,0.00,1.00,0.0,0.0)" id="shape79"><path fill="#c2c2c2" d="M0,0L201,0L201,90L0,90L0,0Z" stroke="#000000" stroke-width="3.33333" stroke-dasharray="36.66663,16.66665"/></g><g transform="translate(173.00,10.00)" id="group80"><g transform="translate(4.80,0.00)" id="shape81"><path fill="#c2c2c2" d="M0,0L15.2,0L15.2,20L0,20L0,0Z" stroke="#000000" stroke-width="3.33333" stroke-dasharray="36.66663,16.66665"/></g><g transform="translate(0.00,3.00)" id="shape82"><path fill="#c2c2c2" d="M0,0L10,0L10,4L0,4L0,0Z" stroke="#000000" stroke-width="3.33333" stroke-dasharray="36.66663,16.66665"/></g><g transform="translate(0.00,13.00)" id="shape83"><path fill="#c2c2c2" d="M0,0L10,0L10,4L0,4L0,0Z" stroke="#000000" stroke-width="3.33333" stroke-dasharray="36.66663,16.66665"/></g></g><text xmlns="http://www.w3.org/2000/svg" xml:space="preserve"><tspan x="37.765625" y="48.75" textLength="125.46875" style="fill:rgb(0, 0, 0);font-family:Bahnschrift;font-size:14pt;font-weight:bold;">Voyage AI API</tspan></text></g><g transform="translate(737.00,86.00)" id="group84"><g transform="matrix(1.00,0.00,0.00,1.00,0.0,0.0)" id="shape85"><path fill="#c2c2c2" d="M0,0L201,0L201,90L0,90L0,0Z" stroke="#000000" stroke-width="3.33333" stroke-dasharray="36.66663,16.66665"/></g><g transform="translate(173.00,10.00)" id="group86"><g transform="translate(4.80,0.00)" id="shape87"><path fill="#c2c2c2" d="M0,0L15.2,0L15.2,20L0,20L0,0Z" stroke="#000000" stroke-width="3.33333" stroke-dasharray="36.66663,16.66665"/></g><g transform="translate(0.00,3.00)" id="shape88"><path fill="#c2c2c2" d="M0,0L10,0L10,4L0,4L0,0Z" stroke="#000000" stroke-width="3.33333" stroke-dasharray="36.66663,16.66665"/></g><g transform="translate(0.00,13.00)" id="shape89"><path fill="#c2c2c2" d="M0,0L10,0L10,4L0,4L0,0Z" stroke="#000000" stroke-width="3.33333" stroke-dasharray="36.66663,16.66665"/></g></g><text xmlns="http://www.w3.org/2000/svg" xml:space="preserve"><tspan x="30.015625" y="37.0546875" textLength="147.1875" style="fill:rgb(0, 0, 0);font-family:Bahnschrift;font-size:14pt;font-weight:bold;">LangChain RAG </tspan><tspan x="67.6875" y="59.4453125" textLength="65.625" style="fill:rgb(0, 0, 0);font-family:Bahnschrift;font-size:14pt;font-weight:bold;">System</tspan></text></g><g transform="translate(103.41,1150.00)" id="group90"><g transform="matrix(1.00,0.00,0.00,1.00,0.0,0.0)" id="shape91"><path fill="#fae9e9" d="M0,0L201,0L201,90L0,90L0,0Z" stroke="#000000" stroke-width="3.33333"/></g><g transform="translate(173.00,10.00)" id="group92"><g transform="translate(4.80,0.00)" id="shape93"><path fill="#fae9e9" d="M0,0L15.2,0L15.2,20L0,20L0,0Z" stroke="#000000" stroke-width="3.33333"/></g><g transform="translate(0.00,3.00)" id="shape94"><path fill="#fae9e9" d="M0,0L10,0L10,4L0,4L0,0Z" stroke="#000000" stroke-width="3.33333"/></g><g transform="translate(0.00,13.00)" id="shape95"><path fill="#fae9e9" d="M0,0L10,0L10,4L0,4L0,0Z" stroke="#000000" stroke-width="3.33333"/></g></g><text xmlns="http://www.w3.org/2000/svg" xml:space="preserve"><tspan x="37.3125" y="37.3046875" textLength="126.3671875" style="fill:rgb(0, 0, 0);font-family:Bahnschrift;font-size:14pt;font-weight:bold;">&lt;&lt;singleton&gt;&gt;</tspan><tspan x="71.21875" y="60.1953125" textLength="58.5546875" style="fill:rgb(0, 0, 0);font-family:Bahnschrift;font-size:14pt;font-weight:bold;">Config</tspan></text></g><g transform="translate(2.00,469.00)" id="group96"><g transform="matrix(1.00,0.00,0.00,1.00,0.0,0.0)" id="shape97"><path fill="#fae9e9" d="M0,0L201,0L201,90L0,90L0,0Z" stroke="#000000" stroke-width="3.33333"/></g><g transform="translate(173.00,10.00)" id="group98"><g transform="translate(4.80,0.00)" id="shape99"><path fill="#fae9e9" d="M0,0L15.2,0L15.2,20L0,20L0,0Z" stroke="#000000" stroke-width="3.33333"/></g><g transform="translate(0.00,3.00)" id="shape100"><path fill="#fae9e9" d="M0,0L10,0L10,4L0,4L0,0Z" stroke="#000000" stroke-width="3.33333"/></g><g transform="translate(0.00,13.00)" id="shape101"><path fill="#fae9e9" d="M0,0L10,0L10,4L0,4L0,0Z" stroke="#000000" stroke-width="3.33333"/></g></g><text xmlns="http://www.w3.org/2000/svg" xml:space="preserve"><tspan x="37.3125" y="37.3046875" textLength="126.3671875" style="fill:rgb(0, 0, 0);font-family:Bahnschrift;font-size:14pt;font-weight:bold;">&lt;&lt;singleton&gt;&gt;</tspan><tspan x="43.4609375" y="60.1953125" textLength="114.078125" style="fill:rgb(0, 0, 0);font-family:Bahnschrift;font-size:14pt;font-weight:bold;">GeminiClient</tspan></text></g><g transform="translate(923.69,454.21)" id="shape102"><path fill="#ffdcac" d="M0,0L179.4,0L179.4,25L299,25L299,285L0,285L0,0Z"/><path stroke="#000000" d="M0,0L179.4,0L179.4,25L299,25L299,285L0,285L0,0ZM0,25L194.4,25L0,25Z" fill="none"/><text xmlns="http://www.w3.org/2000/svg" xml:space="preserve"><tspan x="7.410937500000003" y="17.40234999999666" textLength="164.578125" style="fill:rgb(0, 0, 0);font-family:Arial;font-size:12pt;font-weight:normal;">&lt;&lt;package&gt;&gt; Backend</tspan></text></g><g transform="translate(944.60,510.71)" id="group103"><g transform="matrix(1.00,0.00,0.00,1.00,0.0,0.0)" id="group104"><g transform="matrix(1.00,0.00,0.00,1.00,0.0,0.0)" id="shape105"><path fill="#ffce80" d="M0,0L217,0L217,194L0,194L0,0Z" stroke="#000000" stroke-width="3.33333"/></g><g transform="translate(189.00,10.00)" id="group106"><g transform="translate(4.80,0.00)" id="shape107"><path fill="#ffce80" d="M0,0L15.2,0L15.2,20L0,20L0,0Z" stroke="#000000" stroke-width="3.33333"/></g><g transform="translate(0.00,3.00)" id="shape108"><path fill="#ffce80" d="M0,0L10,0L10,4L0,4L0,0Z" stroke="#000000" stroke-width="3.33333"/></g><g transform="translate(0.00,13.00)" id="shape109"><path fill="#ffce80" d="M0,0L10,0L10,4L0,4L0,0Z" stroke="#000000" stroke-width="3.33333"/></g></g><text xmlns="http://www.w3.org/2000/svg" xml:space="preserve"><tspan x="54.485625" y="17" textLength="108.2109375" style="fill:rgb(0, 0, 0);font-family:Bahnschrift;font-size:14pt;font-weight:bold;">&lt;&lt;service&gt;&gt;</tspan><tspan x="43.204375" y="39.890625" textLength="130.78125" style="fill:rgb(0, 0, 0);font-family:Bahnschrift;font-size:14pt;font-weight:bold;">FastAPI Server</tspan></text></g><g transform="translate(0.00,59.00)" id="shape110"><path fill="#ffce80" fill-opacity="0.00" d="M217.1,132L217.1,0L0,0L0,132L217.1,132Z" stroke="#323232"/><text xmlns="http://www.w3.org/2000/svg" xml:space="preserve"><tspan x="3.094999999999999" y="41.60940000000119" textLength="0" style="fill:rgb(0, 0, 0);font-family:&quot;Helvetica Neue&quot;, Helvetica, &quot;PingFang SC&quot;, &quot;Microsoft YaHei&quot;, &quot;\5 FAE8F6F96C59ED1&quot;, Arial, sans-serif;font-size:12pt;font-weight:normal;">•</tspan><tspan x="3.094999999999999" y="60.80471250000119" textLength="0" style="fill:rgb(0, 0, 0);font-family:&quot;Helvetica Neue&quot;, Helvetica, &quot;PingFang SC&quot;, &quot;Microsoft YaHei&quot;, &quot;\5 FAE8F6F96C59ED1&quot;, Arial, sans-serif;font-size:12pt;font-weight:normal;">•</tspan><tspan x="25.095" y="42.10940000000119" textLength="122.4375" style="fill:rgb(25, 25, 25);font-family:Arial;font-size:12pt;font-weight:normal;">GET /evaluations</tspan><tspan x="3.094999999999999" y="80.00002500000119" textLength="0" style="fill:rgb(0, 0, 0);font-family:&quot;Helvetica Neue&quot;, Helvetica, &quot;PingFang SC&quot;, &quot;Microsoft YaHei&quot;, &quot;\5 FAE8F6F96C59ED1&quot;, Arial, sans-serif;font-size:12pt;font-weight:normal;">•</tspan><tspan x="25.095" y="61.30471250000119" textLength="150.0234375" style="fill:rgb(25, 25, 25);font-family:Arial;font-size:12pt;font-weight:normal;">GET /evaluations/{id}</tspan><tspan x="3.094999999999999" y="99.19533750000119" textLength="0" style="fill:rgb(0, 0, 0);font-family:&quot;Helvetica Neue&quot;, Helvetica, &quot;PingFang SC&quot;, &quot;Microsoft YaHei&quot;, &quot;\5 FAE8F6F96C59ED1&quot;, Arial, sans-serif;font-size:12pt;font-weight:normal;">•</tspan><tspan x="25.095" y="80.50002500000119" textLength="109.984375" style="fill:rgb(25, 25, 25);font-family:Arial;font-size:12pt;font-weight:normal;">GET /questions</tspan><tspan x="25.095" y="99.69533750000119" textLength="137.5703125" style="fill:rgb(25, 25, 25);font-family:Arial;font-size:12pt;font-weight:normal;">GET /questions/{id}</tspan></text></g></g><g transform="translate(924.03,788.52)" id="shape111"><path fill="#ffdcac" d="M0,0L179.4,0L179.4,25L299,25L299,349L0,349L0,0Z"/><path stroke="#000000" d="M0,0L179.4,0L179.4,25L299,25L299,349L0,349L0,0ZM0,25L194.4,25L0,25Z" fill="none"/><text xmlns="http://www.w3.org/2000/svg" xml:space="preserve"><tspan x="6.520312500000003" y="17.40234999999666" textLength="166.3515625" style="fill:rgb(0, 0, 0);font-family:Arial;font-size:12pt;font-weight:normal;">&lt;&lt;package&gt;&gt; Frontend</tspan></text></g><g transform="translate(958.25,845.10)" id="group112"><g transform="matrix(1.00,0.00,0.00,1.00,0.0,0.0)" id="shape113"><path fill="#ffce80" d="M0,0L218,0L218,63L0,63L0,0Z" stroke="#000000" stroke-width="3.33333"/></g><g transform="translate(190.00,10.00)" id="group114"><g transform="translate(4.80,0.00)" id="shape115"><path fill="#ffce80" d="M0,0L15.2,0L15.2,20L0,20L0,0Z" stroke="#000000" stroke-width="3.33333"/></g><g transform="translate(0.00,3.00)" id="shape116"><path fill="#ffce80" d="M0,0L10,0L10,4L0,4L0,0Z" stroke="#000000" stroke-width="3.33333"/></g><g transform="translate(0.00,13.00)" id="shape117"><path fill="#ffce80" d="M0,0L10,0L10,4L0,4L0,0Z" stroke="#000000" stroke-width="3.33333"/></g></g><text xmlns="http://www.w3.org/2000/svg" xml:space="preserve"><tspan x="48.546875" y="17" textLength="120.90625" style="fill:rgb(0, 0, 0);font-family:Bahnschrift;font-size:14pt;font-weight:bold;">&lt;&lt;web app&gt;&gt;</tspan><tspan x="62.546875" y="39.890625" textLength="92.8984375" style="fill:rgb(0, 0, 0);font-family:Bahnschrift;font-size:14pt;font-weight:bold;">React App</tspan></text></g><g transform="translate(1147.91,845.10)" id="shape118"><path stroke="#000000" d="M0,0L0.8,0.9" fill="none"/></g><g transform="translate(959.25,963.10)" id="group119"><g transform="matrix(1.00,0.00,0.00,1.00,0.0,0.0)" id="group120"><g transform="matrix(1.00,0.00,0.00,1.00,0.0,0.0)" id="shape121"><path fill="#ffce80" d="M0,0L217,0L217,145L0,145L0,0Z" stroke="#000000" stroke-width="3.33333"/></g><g transform="translate(189.00,10.00)" id="group122"><g transform="translate(4.80,0.00)" id="shape123"><path fill="#ffce80" d="M0,0L15.2,0L15.2,20L0,20L0,0Z" stroke="#000000" stroke-width="3.33333"/></g><g transform="translate(0.00,3.00)" id="shape124"><path fill="#ffce80" d="M0,0L10,0L10,4L0,4L0,0Z" stroke="#000000" stroke-width="3.33333"/></g><g transform="translate(0.00,13.00)" id="shape125"><path fill="#ffce80" d="M0,0L10,0L10,4L0,4L0,0Z" stroke="#000000" stroke-width="3.33333"/></g></g><text xmlns="http://www.w3.org/2000/svg" xml:space="preserve"><tspan x="82.328125" y="17" textLength="52.34375" style="fill:rgb(0, 0, 0);font-family:Bahnschrift;font-size:14pt;font-weight:bold;">Views</tspan></text></g><g transform="translate(0.00,32.76)" id="shape126"><path fill="#ffce80" fill-opacity="0.00" d="M217,110L217,0L0,0L0,110L217,110Z" stroke="#323232"/><text xmlns="http://www.w3.org/2000/svg" xml:space="preserve"><tspan x="3.5" y="30.609400000001187" textLength="0" style="fill:rgb(0, 0, 0);font-family:&quot;Helvetica Neue&quot;, Helvetica, &quot;PingFang SC&quot;, &quot;Microsoft YaHei&quot;, &quot;\5 FAE8F6F96C59ED1&quot;, Arial, sans-serif;font-size:12pt;font-weight:normal;">•</tspan><tspan x="3.5" y="49.80471250000119" textLength="0" style="fill:rgb(0, 0, 0);font-family:&quot;Helvetica Neue&quot;, Helvetica, &quot;PingFang SC&quot;, &quot;Microsoft YaHei&quot;, &quot;\5 FAE8F6F96C59ED1&quot;, Arial, sans-serif;font-size:12pt;font-weight:normal;">•</tspan><tspan x="25.5" y="31.109400000001187" textLength="107.6171875" style="fill:rgb(25, 25, 25);font-family:Arial;font-size:12pt;font-weight:normal;">EvaluationsList</tspan><tspan x="3.5" y="69.00002500000119" textLength="0" style="fill:rgb(0, 0, 0);font-family:&quot;Helvetica Neue&quot;, Helvetica, &quot;PingFang SC&quot;, &quot;Microsoft YaHei&quot;, &quot;\5 FAE8F6F96C59ED1&quot;, Arial, sans-serif;font-size:12pt;font-weight:normal;">•</tspan><tspan x="25.5" y="50.30471250000119" textLength="115.625" style="fill:rgb(25, 25, 25);font-family:Arial;font-size:12pt;font-weight:normal;">EvaluationDetail</tspan><tspan x="3.5" y="88.19533750000119" textLength="0" style="fill:rgb(0, 0, 0);font-family:&quot;Helvetica Neue&quot;, Helvetica, &quot;PingFang SC&quot;, &quot;Microsoft YaHei&quot;, &quot;\5 FAE8F6F96C59ED1&quot;, Arial, sans-serif;font-size:12pt;font-weight:normal;">•</tspan><tspan x="25.5" y="69.50002500000119" textLength="96.9375" style="fill:rgb(25, 25, 25);font-family:Arial;font-size:12pt;font-weight:normal;">QuestionsList</tspan><tspan x="25.5" y="88.69533750000119" textLength="112.9453125" style="fill:rgb(25, 25, 25);font-family:Arial;font-size:12pt;font-weight:normal;">QuestionsDetail</tspan></text></g></g><g transform="translate(963.00,87.00)" id="group127"><g transform="matrix(1.00,0.00,0.00,1.00,0.0,0.0)" id="group128"><g transform="matrix(1.00,0.00,0.00,1.00,0.0,0.0)" id="shape129"><path fill="#c2c2c2" d="M0,0L217,0L217,89L0,89L0,0Z" stroke="#000000" stroke-width="3.33333" stroke-dasharray="36.66663,16.66665"/></g><g transform="translate(189.00,10.00)" id="group130"><g transform="translate(4.80,0.00)" id="shape131"><path fill="#c2c2c2" d="M0,0L15.2,0L15.2,20L0,20L0,0Z" stroke="#000000" stroke-width="3.33333" stroke-dasharray="36.66663,16.66665"/></g><g transform="translate(0.00,3.00)" id="shape132"><path fill="#c2c2c2" d="M0,0L10,0L10,4L0,4L0,0Z" stroke="#000000" stroke-width="3.33333" stroke-dasharray="36.66663,16.66665"/></g><g transform="translate(0.00,13.00)" id="shape133"><path fill="#c2c2c2" d="M0,0L10,0L10,4L0,4L0,0Z" stroke="#000000" stroke-width="3.33333" stroke-dasharray="36.66663,16.66665"/></g></g><text xmlns="http://www.w3.org/2000/svg" xml:space="preserve"><tspan x="56.90625" y="17" textLength="103.1796875" style="fill:rgb(0, 0, 0);font-family:Bahnschrift;font-size:14pt;font-weight:bold;">File System</tspan></text></g><g transform="translate(0.00,27.62)" id="shape134"><path fill="#ffce80" fill-opacity="0.00" d="M217,60L217,0L0,0L0,60L217,60Z" stroke="#323232"/><text xmlns="http://www.w3.org/2000/svg" xml:space="preserve"><tspan x="3.5" y="24.804700000000594" textLength="0" style="fill:rgb(0, 0, 0);font-family:&quot;Helvetica Neue&quot;, Helvetica, &quot;PingFang SC&quot;, &quot;Microsoft YaHei&quot;, &quot;\5 FAE8F6F96C59ED1&quot;, Arial, sans-serif;font-size:12pt;font-weight:normal;">•</tspan><tspan x="3.5" y="44.000012500000594" textLength="0" style="fill:rgb(0, 0, 0);font-family:&quot;Helvetica Neue&quot;, Helvetica, &quot;PingFang SC&quot;, &quot;Microsoft YaHei&quot;, &quot;\5 FAE8F6F96C59ED1&quot;, Arial, sans-serif;font-size:12pt;font-weight:normal;">•</tspan><tspan x="25.5" y="25.304700000000594" textLength="173.4375" style="fill:rgb(25, 25, 25);font-family:Arial;font-size:12pt;font-weight:normal;">evaluation_results/*.json</tspan><tspan x="25.5" y="44.500012500000594" textLength="112.9609375" style="fill:rgb(25, 25, 25);font-family:Arial;font-size:12pt;font-weight:normal;">questions/*.json</tspan></text></g></g><g transform="translate(741.65,530.71)" id="shape135"><path fill="#ffffff" d="M0,12.2L0,65.8L0,65.8C0,72.5,27.3,78,61,78C94.6,78,122,72.5,122,65.8L122,12.2L122,12.2C122,5.4,94.6,0,61,0C27.3,0,0,5.4,0,12.2Z"/><path stroke="#323232" stroke-width="4" d="M0,12.2L0,65.8L0,65.8C0,72.5,27.3,78,61,78C94.6,78,122,72.5,122,65.8L122,12.2L122,12.2C122,5.4,94.6,0,61,0C27.3,0,0,5.4,0,12.2ZM122,12.2C122,18.9,94.6,24.4,61,24.4C27.3,24.4,0,18.9,0,12.2" fill="none"/><text xmlns="http://www.w3.org/2000/svg" xml:space="preserve"><tspan x="8.078125" y="53.052349999996665" textLength="105.8359375" style="fill:rgb(25, 25, 25);font-family:Arial;font-size:12pt;font-weight:normal;">Result Storage</tspan></text></g><g transform="translate(551.83,798.66)" id="shape136"><path stroke="#000000" stroke-width="4" d="M0,-37.5L0,-72.7" fill="none"/><path stroke-linecap="round" stroke-width="1" fill="#000000" stroke="#000000" d="M0,-1L10.8,-18.8L0,-37.5L-10.8,-18.8L0,-1Z"/></g><g transform="translate(551.83,636.00)" id="shape137"><path stroke="#000000" stroke-width="3" stroke-dasharray="18,12" d="M0,0L0,-51.4L-1,-51.4L-1,-99.7" fill="none"/><path stroke-linecap="round" stroke-width="3" stroke-linejoin="round" fill="none" stroke="#000000" d="M-11.4,-81.9L-1,-102.7L9.3,-81.9"/><rect xmlns="http://www.w3.org/2000/svg" x="-37.8828125" y="-56.93996532728903" width="75.796875" height="21" fill="rgb(255, 255, 255)" transform=""/><text xmlns="http://www.w3.org/2000/svg" xml:space="preserve"><tspan x="-37.8828125" y="-40.93996532728903" textLength="75.796875" style="fill:rgb(25, 25, 25);font-family:Arial;font-size:14pt;font-weight:bold;background-color:rgb(255, 255, 255);">&lt;&lt;use&gt;&gt;</tspan></text></g><g transform="translate(558.46,888.66)" id="shape138"><path stroke="#000000" stroke-width="4" d="M0,37.4L0,87.3" fill="none"/><path stroke-linecap="round" stroke-width="1" fill="#000000" stroke="#000000" d="M0,1L-10.8,18.7L0,37.4L10.8,18.7L0,1Z"/></g><g transform="translate(558.83,1066.00)" id="shape139"><path stroke="#000000" stroke-width="3" stroke-dasharray="18,12" d="M0,0L0,51.4L0,51.4L0,195" fill="none"/><path stroke-linecap="round" stroke-width="3" stroke-linejoin="round" fill="none" stroke="#000000" d="M10.4,177.3L0,198L-10.4,177.3"/><rect xmlns="http://www.w3.org/2000/svg" x="-37.822812500000964" y="96.75470000000064" width="75.796875" height="21" fill="rgb(255, 255, 255)" transform=""/><text xmlns="http://www.w3.org/2000/svg" xml:space="preserve"><tspan x="-37.822812500000964" y="112.75470000000064" textLength="75.796875" style="fill:rgb(25, 25, 25);font-family:Arial;font-size:14pt;font-weight:bold;background-color:rgb(255, 255, 255);">&lt;&lt;use&gt;&gt;</tspan></text></g><g transform="translate(458.37,1115.44)" id="shape140"><path stroke="#000000" stroke-width="3" stroke-dasharray="18,12" d="M0,0L2.4,0L2.4,84.4L-151,84.4" fill="none"/><path stroke-linecap="round" stroke-width="3" stroke-linejoin="round" fill="none" stroke="#000000" d="M-133.2,94.8L-154,84.4L-133.2,74"/><rect xmlns="http://www.w3.org/2000/svg" x="-93.23724157324843" y="73.7234500000086" width="75.796875" height="21" fill="rgb(255, 255, 255)" transform=""/><text xmlns="http://www.w3.org/2000/svg" xml:space="preserve"><tspan x="-93.23724157324843" y="89.7234500000086" textLength="75.796875" style="fill:rgb(25, 25, 25);font-family:Arial;font-size:14pt;font-weight:bold;background-color:rgb(255, 255, 255);">&lt;&lt;use&gt;&gt;</tspan></text></g><g transform="translate(228.45,888.54)" id="shape141"><path stroke="#000000" stroke-width="4" d="M0,37.4L0,69.9" fill="none"/><path stroke-linecap="round" stroke-width="1" fill="#000000" stroke="#000000" d="M0,1L-10.8,18.7L0,37.4L10.8,18.7L0,1Z"/></g><g transform="translate(451.33,843.66)" id="shape142"><path stroke="#000000" stroke-width="4" d="M-37.5,0L-111.2,0L-111.2,-0.2L-122.4,-0.2" fill="none"/><path stroke-linecap="round" stroke-width="1" fill="#000000" stroke="#000000" d="M-1,0L-18.8,-10.8L-37.5,0L-18.8,10.8L-1,0Z"/></g><g transform="translate(305.80,1481.79)" id="shape143"><path stroke="#000000" stroke-width="3" stroke-dasharray="18,12" d="M0,0L-266.5,0L-266.5,-919.8" fill="none"/><path stroke-linecap="round" stroke-width="3" stroke-linejoin="round" fill="none" stroke="#000000" d="M-276.9,-902.1L-266.5,-922.8L-256.1,-902.1"/><rect xmlns="http://www.w3.org/2000/svg" x="-304.3018124999993" y="-194.04586205772088" width="75.796875" height="21" fill="rgb(255, 255, 255)" transform=""/><text xmlns="http://www.w3.org/2000/svg" xml:space="preserve"><tspan x="-304.3018124999993" y="-178.04586205772088" textLength="75.796875" style="fill:rgb(25, 25, 25);font-family:Arial;font-size:14pt;font-weight:bold;background-color:rgb(255, 255, 255);">&lt;&lt;use&gt;&gt;</tspan></text></g><g transform="translate(659.33,467.37)" id="shape144"><path stroke="#000000" stroke-width="3" stroke-dasharray="18,12" d="M0,0L120.6,0L120.6,-288.4" fill="none"/><path stroke-linecap="round" stroke-width="3" stroke-linejoin="round" fill="none" stroke="#000000" d="M110.2,-270.6L120.6,-291.4L131,-270.6"/><rect xmlns="http://www.w3.org/2000/svg" x="82.80618749999974" y="-178.31640535041984" width="75.796875" height="21" fill="rgb(255, 255, 255)" transform=""/><text xmlns="http://www.w3.org/2000/svg" xml:space="preserve"><tspan x="82.80618749999974" y="-162.31640535041984" textLength="75.796875" style="fill:rgb(25, 25, 25);font-family:Arial;font-size:14pt;font-weight:bold;background-color:rgb(255, 255, 255);">&lt;&lt;use&gt;&gt;</tspan></text></g><g transform="translate(305.80,1380.17)" id="shape145"><path stroke="#000000" stroke-width="3" stroke-dasharray="18,12" d="M0,0L-104.2,0L-104.2,-137.2" fill="none"/><path stroke-linecap="round" stroke-width="3" stroke-linejoin="round" fill="none" stroke="#000000" d="M-114.5,-119.4L-104.2,-140.2L-93.8,-119.4"/><rect xmlns="http://www.w3.org/2000/svg" x="-141.98381249999937" y="-35.03880673944993" width="75.796875" height="21" fill="rgb(255, 255, 255)" transform=""/><text xmlns="http://www.w3.org/2000/svg" xml:space="preserve"><tspan x="-141.98381249999937" y="-19.03880673944993" textLength="75.796875" style="fill:rgb(25, 25, 25);font-family:Arial;font-size:14pt;font-weight:bold;background-color:rgb(255, 255, 255);">&lt;&lt;use&gt;&gt;</tspan></text></g><g transform="translate(102.50,469.00)" id="shape146"><path stroke="#000000" stroke-width="3" stroke-dasharray="18,12" d="M0,0L2.4,0L2.4,-194.8L206.4,-194.8L206.4,-290" fill="none"/><path stroke-linecap="round" stroke-width="3" stroke-linejoin="round" fill="none" stroke="#000000" d="M196,-272.3L206.4,-293L216.8,-272.3"/><rect xmlns="http://www.w3.org/2000/svg" x="-35.442812499999945" y="-131.6952999999994" width="75.796875" height="21" fill="rgb(255, 255, 255)" transform=""/><text xmlns="http://www.w3.org/2000/svg" xml:space="preserve"><tspan x="-35.442812499999945" y="-115.6952999999994" textLength="75.796875" style="fill:rgb(25, 25, 25);font-family:Arial;font-size:14pt;font-weight:bold;background-color:rgb(255, 255, 255);">&lt;&lt;use&gt;&gt;</tspan></text></g><g transform="translate(127.95,843.54)" id="shape147"><path stroke="#000000" stroke-width="3" stroke-dasharray="18,12" d="M0,0L-51.8,0L-51.8,-281.6" fill="none"/><path stroke-linecap="round" stroke-width="3" stroke-linejoin="round" fill="none" stroke="#000000" d="M-62.2,-263.8L-51.8,-284.6L-41.4,-263.8"/><rect xmlns="http://www.w3.org/2000/svg" x="-89.66881249999994" y="-178.84701875000118" width="75.796875" height="21" fill="rgb(255, 255, 255)" transform=""/><text xmlns="http://www.w3.org/2000/svg" xml:space="preserve"><tspan x="-89.66881249999994" y="-162.84701875000118" textLength="75.796875" style="fill:rgb(25, 25, 25);font-family:Arial;font-size:14pt;font-weight:bold;background-color:rgb(255, 255, 255);">&lt;&lt;use&gt;&gt;</tspan></text></g><g transform="translate(323.87,711.09)" id="shape148"><path stroke="#000000" stroke-width="3" stroke-dasharray="18,12" d="M0,0L0,-401.9L97.4,-401.9L97.4,-499.2" fill="none"/><path stroke-linecap="round" stroke-width="3" stroke-linejoin="round" fill="none" stroke="#000000" d="M87,-481.4L97.4,-502.2L107.8,-481.4"/><rect xmlns="http://www.w3.org/2000/svg" x="-37.8828125" y="-197.6345187500004" width="75.796875" height="21" fill="rgb(255, 255, 255)" transform=""/><text xmlns="http://www.w3.org/2000/svg" xml:space="preserve"><tspan x="-37.8828125" y="-181.6345187500004" textLength="75.796875" style="fill:rgb(25, 25, 25);font-family:Arial;font-size:14pt;font-weight:bold;background-color:rgb(255, 255, 255);">&lt;&lt;use&gt;&gt;</tspan></text></g><g transform="translate(1138.37,845.10)" id="shape149"><path stroke="#000000" stroke-width="3" stroke-dasharray="18,12" d="M0,0L0,-137.4" fill="none"/><path stroke-linecap="round" stroke-width="3" stroke-linejoin="round" fill="none" stroke="#000000" d="M-10.4,-119.7L0,-140.4L10.3,-119.7"/><rect xmlns="http://www.w3.org/2000/svg" x="-37.8828125" y="-88.16029999999891" width="75.796875" height="21" fill="rgb(255, 255, 255)" transform=""/><text xmlns="http://www.w3.org/2000/svg" xml:space="preserve"><tspan x="-37.8828125" y="-72.16029999999891" textLength="75.796875" style="fill:rgb(25, 25, 25);font-family:Arial;font-size:14pt;font-weight:bold;background-color:rgb(255, 255, 255);">&lt;&lt;use&gt;&gt;</tspan></text></g><g transform="translate(1067.25,908.10)" id="shape150"><path stroke="#000000" stroke-width="3" stroke-dasharray="18,12" d="M0,0L0,27.5L-0.4,27.5L-0.4,52" fill="none"/><path stroke-linecap="round" stroke-width="3" stroke-linejoin="round" fill="none" stroke="#000000" d="M10,34.2L-0.4,55L-10.8,34.2"/></g><g transform="translate(944.60,570.73)" id="shape151"><path stroke="#000000" stroke-width="3" stroke-dasharray="18,12" d="M0,0L-40.5,0L-40.5,-1.1L-78,-1.1" fill="none"/><path stroke-linecap="round" stroke-width="3" stroke-linejoin="round" fill="none" stroke="#000000" d="M-60.2,9.3L-81,-1.1L-60.2,-11.5"/></g><g transform="translate(652.33,843.66)" id="shape152"><path stroke="#000000" stroke-width="3" stroke-dasharray="18,12" d="M0,0L0,1.8L150.3,1.8L150.3,-232" fill="none"/><path stroke-linecap="round" stroke-width="3" stroke-linejoin="round" fill="none" stroke="#000000" d="M139.9,-214.2L150.3,-235L160.7,-214.2"/><rect xmlns="http://www.w3.org/2000/svg" x="112.43906250000009" y="-59.4356125000072" width="75.796875" height="21" fill="rgb(255, 255, 255)" transform=""/><text xmlns="http://www.w3.org/2000/svg" xml:space="preserve"><tspan x="112.43906250000009" y="-43.4356125000072" textLength="75.796875" style="fill:rgb(25, 25, 25);font-family:Arial;font-size:14pt;font-weight:bold;background-color:rgb(255, 255, 255);">&lt;&lt;use&gt;&gt;</tspan></text></g><g transform="translate(840.71,533.38)" id="shape153"><path stroke="#000000" stroke-width="3" stroke-dasharray="18,12" d="M0,0L0,-206.8L140.9,-206.8L140.9,-355.8" fill="none"/><path stroke-linecap="round" stroke-width="3" stroke-linejoin="round" fill="none" stroke="#000000" d="M130.5,-338L140.9,-358.8L151.3,-338"/><rect xmlns="http://www.w3.org/2000/svg" x="-37.8828125" y="-85.57062553975709" width="75.796875" height="21" fill="rgb(255, 255, 255)" transform=""/><text xmlns="http://www.w3.org/2000/svg" xml:space="preserve"><tspan x="-37.8828125" y="-69.57062553975709" textLength="75.796875" style="fill:rgb(25, 25, 25);font-family:Arial;font-size:14pt;font-weight:bold;background-color:rgb(255, 255, 255);">&lt;&lt;use&gt;&gt;</tspan></text></g><g transform="translate(205.69,1082.69)" id="shape154"><path stroke="#000000" stroke-width="3" stroke-dasharray="18,12" d="M0,0L0,54.3L0,54.3L0,64.3" fill="none"/><path stroke-linecap="round" stroke-width="3" stroke-linejoin="round" fill="none" stroke="#000000" d="M10.4,46.5L0,67.3L-10.4,46.5"/></g></g></svg>